<?xml version="1.0" standalone="no"?><!-- Generator: Gravit.io --><svg xmlns="http://www.w3.org/2000/svg" xmlns:xlink="http://www.w3.org/1999/xlink" style="isolation:isolate" viewBox="0 0 450 450" width="450" height="450"><defs><clipPath id="_clipPath_paBaLxBzzhlKIBIubma6YxADnWTZyRpP"><rect width="450" height="450"/></clipPath></defs><g clip-path="url(#_clipPath_paBaLxBzzhlKIBIubma6YxADnWTZyRpP)"><g id="Group"><path d=" M 363.365 29 L 86.635 29 C 54.809 29.012 29.012 54.809 29 86.635 L 29 363.365 C 29.012 395.191 54.809 420.988 86.635 421 L 363.365 421 C 395.191 420.988 420.988 395.191 421 363.365 L 421 86.635 C 420.988 54.809 395.191 29.012 363.365 29 L 363.365 29 Z " fill="rgb(3,155,229)"/><path d=" M 29 225 L 29 363.365 C 29.012 395.191 54.809 420.988 86.635 421 L 363.365 421 C 395.191 420.988 420.988 395.191 421 363.365 L 421 225 L 29 225 Z " fill="rgb(2,136,209)"/><path d=" M 282.678 138.531 L 323 138.531 L 323 253.845 L 282.678 253.845 L 282.678 138.531 Z  M 245.286 231.13 C 238.437 223.465 228.953 219.174 216.79 218.282 C 227.592 215.298 235.508 211.008 240.484 205.215 C 245.417 199.52 247.888 191.778 247.888 182.043 C 247.888 174.345 246.179 167.539 242.945 161.67 C 239.511 155.722 234.489 150.846 228.441 147.591 C 222.92 144.564 216.365 142.397 208.71 141.166 C 201.012 139.936 187.564 139.337 168.214 139.337 L 121.262 139.337 L 121.262 310.663 L 169.663 310.663 C 189.099 310.663 203.135 309.988 211.694 308.703 C 220.274 307.342 227.472 305.088 233.297 301.984 C 240.273 298.348 246.014 292.724 249.794 285.825 C 253.67 278.856 255.587 270.81 255.587 261.619 C 255.587 248.945 252.135 238.742 245.286 231.13 Z  M 164.599 177.318 L 174.639 177.318 C 186.246 177.318 194.032 178.592 198.028 181.238 C 202.035 183.829 204.028 188.337 204.028 194.805 C 204.028 201.012 201.905 205.346 197.604 207.904 C 193.313 210.409 185.441 211.683 173.953 211.683 L 164.599 211.683 L 164.599 177.318 Z  M 204.409 275.579 C 199.858 278.377 191.996 279.738 180.933 279.738 L 164.643 279.738 L 164.643 242.313 L 181.662 242.313 C 193.019 242.313 200.838 243.762 205.008 246.56 C 209.222 249.413 211.302 254.476 211.302 261.663 C 211.302 268.174 209.015 272.813 204.409 275.579 Z " fill="rgb(255,255,255)"/><path d=" M 302.834 265.365 C 296.717 265.356 290.849 267.782 286.524 272.107 C 282.199 276.432 279.773 282.301 279.782 288.417 C 279.782 301.151 290.105 311.474 302.839 311.474 C 315.573 311.474 325.896 301.151 325.896 288.417 C 325.896 275.655 315.552 265.365 302.834 265.365 Z  M 237.936 225 L 121.262 225 L 121.262 310.663 L 169.663 310.663 C 189.099 310.663 203.135 309.988 211.694 308.703 C 220.274 307.342 227.472 305.088 233.297 301.984 C 240.291 298.372 246.038 292.743 249.794 285.825 C 253.67 278.856 255.587 270.853 255.587 261.663 C 255.587 248.945 252.135 238.742 245.286 231.12 C 243.115 228.766 240.644 226.708 237.936 225 Z  M 204.409 275.579 C 199.858 278.377 191.996 279.738 180.933 279.738 L 164.643 279.738 L 164.643 242.313 L 181.662 242.313 C 193.019 242.313 200.838 243.762 205.008 246.56 C 209.222 249.413 211.302 254.476 211.302 261.663 C 211.302 268.174 209.015 272.813 204.409 275.579 Z  M 282.678 225 L 323 225 L 323 253.834 L 282.678 253.834 L 282.678 225 Z " fill="rgb(227,242,253)"/></g></g></svg>