<?xml version="1.0" encoding="UTF-8" standalone="no" ?>
<!DOCTYPE svg PUBLIC "-//W3C//DTD SVG 1.1//EN" "http://www.w3.org/Graphics/SVG/1.1/DTD/svg11.dtd">
<svg xmlns="http://www.w3.org/2000/svg" xmlns:xlink="http://www.w3.org/1999/xlink" version="1.1" width="1280" height="1024" viewBox="0 0 1280 1024" xml:space="preserve">
<desc>Created with Fabric.js 4.4.0</desc>
<defs>
</defs>
<g transform="matrix(1 0 0 1 640 512)" id="background-logo"  >
<rect style="stroke: none; stroke-width: 0; stroke-dasharray: none; stroke-linecap: butt; stroke-dashoffset: 0; stroke-linejoin: miter; stroke-miterlimit: 4; fill: rgb(255,255,255); fill-opacity: 0; fill-rule: nonzero; opacity: 1;"  paint-order="stroke"  x="-640" y="-512" rx="0" ry="0" width="1280" height="1024" />
</g>
<g transform="matrix(1.9211538461538462 0 0 1.9211538461538462 640 393.13380374074376)" id="logo-logo"  >
<g style=""  paint-order="stroke"   >
		<g transform="matrix(0.9648216395287834 0 0 -0.9648216395287834 0 0)"  >
<linearGradient id="SVGID_3_801506" gradientUnits="userSpaceOnUse" gradientTransform="matrix(1 0 0 1 295 430)"  x1="0" y1="0" x2="0" y2="220">
<stop offset="0%" style="stop-color:rgb(113,23,234);stop-opacity: 1"/>
<stop offset="100%" style="stop-color:rgb(234,96,96);stop-opacity: 1"/>
</linearGradient>
<path style="stroke: none; stroke-width: 1; stroke-dasharray: none; stroke-linecap: butt; stroke-dashoffset: 0; stroke-linejoin: miter; stroke-miterlimit: 4; fill: url(#SVGID_3_801506); fill-rule: nonzero; opacity: 1;"  paint-order="stroke"  transform=" translate(-354.7365, -540)" d="M 295 590.264 L 295 525.578 L 354.736 525.578 C 374.5 525.578 390.578 509.49899999999997 390.578 489.736 L 390.578 489.736 C 390.578 469.974 374.5 453.894 354.736 453.894 L 354.736 453.894 C 334.973 453.894 318.894 469.974 318.894 489.736 L 318.894 489.736 C 318.894 498.913 322.371 507.28499999999997 328.064 513.631 L 328.064 513.631 L 299.999 513.631 C 296.789 506.309 295 498.229 295 489.736 L 295 489.736 C 295 456.798 321.798 430 354.736 430 L 354.736 430 C 387.675 430 414.473 456.798 414.473 489.736 L 414.473 489.736 C 414.473 522.675 387.675 549.472 354.736 549.472 L 354.736 549.472 L 318.894 549.472 L 318.894 580.366 L 354.736 616.207 L 390.578 580.366 L 390.578 549.472 L 414.47299999999996 549.472 L 414.47299999999996 590.264 L 354.736 650 Z" stroke-linecap="round" />
</g>
</g>
</g>
<g transform="matrix(1.9211538461538462 0 0 1.9211538461538462 640.6080875029074 645.0247143213946)" id="text-logo"  >
<g style=""  paint-order="stroke"   >
		<g transform="matrix(1 0 0 1 0 0)" id="text-logo-path-0"  >
<linearGradient id="SVGID_801507" gradientUnits="userSpaceOnUse" gradientTransform="matrix(1 0 0 1 1 -34.52)"  x1="0" y1="0" x2="0" y2="41">
<stop offset="0%" style="stop-color:rgb(113,23,234);stop-opacity: 1"/>
<stop offset="100%" style="stop-color:rgb(234,96,96);stop-opacity: 1"/>
</linearGradient>
<path style="stroke: none; stroke-width: 0; stroke-dasharray: none; stroke-linecap: butt; stroke-dashoffset: 0; stroke-linejoin: miter; stroke-miterlimit: 4; fill: url(#SVGID_801507); fill-rule: nonzero; opacity: 1;"  paint-order="stroke"  transform=" translate(-205.225, 17.12)" d="M 1 -8.14 L 1 -8.14 L 5.54 -8.35 Q 5.54 -7.35 6.03 -6.53 Q 6.52 -5.71 7.31 -5.24 Q 8.1 -4.76 9.02 -4.51 Q 9.93 -4.25 10.86 -4.25 L 10.86 -4.25 Q 13.08 -4.25 14.22 -5.06 Q 15.36 -5.87 15.36 -7.42 L 15.36 -7.42 Q 15.36 -8.72 14.55 -9.49 Q 13.75 -10.27 12.3 -10.48 L 12.3 -10.48 L 8.14 -10.92 Q 4.99 -11.37 3.16 -13.14 Q 1.34 -14.91 1.34 -18.07 L 1.34 -18.07 Q 1.34 -21.53 3.96 -23.69 Q 6.59 -25.84 10.99 -25.84 L 10.99 -25.84 Q 14.63 -25.84 17.07 -23.82 Q 19.51 -21.8 19.51 -18.58 L 19.51 -18.58 L 15.05 -18.35 Q 14.87 -19.25 14.42 -19.9 Q 13.97 -20.55 13.37 -20.87 Q 12.76 -21.2 12.14 -21.35 Q 11.51 -21.5 10.83 -21.5 L 10.83 -21.5 Q 8.65 -21.5 7.4 -20.57 Q 6.15 -19.63 6.15 -18.25 L 6.15 -18.25 Q 6.15 -17.05 7.06 -16.32 Q 7.96 -15.59 9.28 -15.42 L 9.28 -15.42 L 13.39 -14.98 Q 20.27 -14.03 20.27 -7.56 L 20.27 -7.56 Q 20.27 -5.13 19.01 -3.35 Q 17.75 -1.56 15.63 -0.68 Q 13.5 0.21 10.79 0.21 L 10.79 0.21 Q 9.56 0.21 8.28 -0.05 Q 7 -0.32 5.67 -0.95 Q 4.34 -1.58 3.32 -2.5 Q 2.3 -3.43 1.65 -4.89 Q 1 -6.35 1 -8.14 Z M 28.87 -7.14 L 28.87 -7.14 L 28.87 -25.63 L 45.74 -25.63 L 45.74 -21.16 L 33.88 -21.16 L 33.88 -15.15 L 42.19 -15.15 L 41.47 -10.69 L 33.88 -10.69 L 33.88 -7.14 Q 33.88 -5.61 34.56 -5.04 Q 35.25 -4.46 37.04 -4.46 L 37.04 -4.46 L 45.74 -4.46 L 45.74 0 L 37.04 0 Q 32.73 0 30.8 -1.67 Q 28.87 -3.34 28.87 -7.14 Z M 35.98 -29.92 L 35.98 -29.92 Q 35.98 -30.23 36.14 -30.71 L 36.14 -30.71 L 37.51 -34.52 L 42.44 -34.52 L 39.78 -30.71 Q 38.59 -28.99 37 -28.99 L 37 -28.99 Q 35.98 -28.99 35.98 -29.92 Z M 55.25 -6.59 L 55.25 -6.59 L 55.25 -25.63 L 66.08 -25.63 Q 69.77 -25.63 71.62 -23.8 Q 73.46 -21.97 73.46 -18.62 L 73.46 -18.62 Q 73.46 -16.68 72.48 -15.3 Q 71.5 -13.92 70.3 -13.36 L 70.3 -13.36 Q 70.95 -13.06 71.51 -12.61 Q 72.08 -12.16 72.63 -11.47 Q 73.18 -10.78 73.51 -9.72 Q 73.83 -8.67 73.83 -7.38 L 73.83 -7.38 Q 73.83 -3.83 71.91 -1.92 Q 69.98 0 66.52 0 L 66.52 0 L 63.06 0 Q 58.8 0 57.03 -1.48 Q 55.25 -2.95 55.25 -6.59 Z M 60.26 -11.13 L 60.26 -7.08 Q 60.26 -5.61 61.01 -5.04 Q 61.76 -4.46 63.43 -4.46 L 63.43 -4.46 L 66.01 -4.46 Q 67.59 -4.46 68.21 -5.32 Q 68.82 -6.17 68.82 -7.63 L 68.82 -7.63 Q 68.82 -9.35 68.22 -10.24 Q 67.61 -11.13 66.01 -11.13 L 66.01 -11.13 L 60.26 -11.13 Z M 60.26 -21.16 L 60.26 -15.63 L 65.69 -15.63 Q 68.47 -15.63 68.47 -18.44 L 68.47 -18.44 Q 68.47 -21.16 65.69 -21.16 L 65.69 -21.16 L 60.26 -21.16 Z M 86.32 0 L 81.1 0 L 89.3 -23.47 Q 89.85 -24.7 90.5 -25.16 Q 91.15 -25.63 92.13 -25.63 L 92.13 -25.63 Q 93.1 -25.63 93.71 -25.19 Q 94.31 -24.75 94.77 -23.47 L 94.77 -23.47 L 102.98 0 L 97.76 0 L 96.32 -4.43 L 87.72 -4.43 L 86.32 0 Z M 92.13 -18.79 L 88.97 -8.65 L 95.16 -8.65 L 92.13 -18.79 Z M 109.12 -8.14 L 109.12 -8.14 L 113.65 -8.35 Q 113.65 -7.35 114.14 -6.53 Q 114.64 -5.71 115.43 -5.24 Q 116.22 -4.76 117.13 -4.51 Q 118.05 -4.25 118.98 -4.25 L 118.98 -4.25 Q 121.19 -4.25 122.34 -5.06 Q 123.48 -5.87 123.48 -7.42 L 123.48 -7.42 Q 123.48 -8.72 122.67 -9.49 Q 121.86 -10.27 120.42 -10.48 L 120.42 -10.48 L 116.25 -10.92 Q 113.11 -11.37 111.28 -13.14 Q 109.45 -14.91 109.45 -18.07 L 109.45 -18.07 Q 109.45 -21.53 112.08 -23.69 Q 114.71 -25.84 119.1 -25.84 L 119.1 -25.84 Q 122.74 -25.84 125.18 -23.82 Q 127.63 -21.8 127.63 -18.58 L 127.63 -18.58 L 123.16 -18.35 Q 122.99 -19.25 122.54 -19.9 Q 122.09 -20.55 121.48 -20.87 Q 120.88 -21.2 120.25 -21.35 Q 119.63 -21.5 118.94 -21.5 L 118.94 -21.5 Q 116.76 -21.5 115.52 -20.57 Q 114.27 -19.63 114.27 -18.25 L 114.27 -18.25 Q 114.27 -17.05 115.17 -16.32 Q 116.08 -15.59 117.4 -15.42 L 117.4 -15.42 L 121.51 -14.98 Q 128.38 -14.03 128.38 -7.56 L 128.38 -7.56 Q 128.38 -5.13 127.13 -3.35 Q 125.87 -1.56 123.74 -0.68 Q 121.62 0.21 118.91 0.21 L 118.91 0.21 Q 117.68 0.21 116.39 -0.05 Q 115.11 -0.32 113.78 -0.95 Q 112.46 -1.58 111.44 -2.5 Q 110.42 -3.43 109.77 -4.89 Q 109.12 -6.35 109.12 -8.14 Z M 141.76 -21.16 L 134.92 -21.16 L 134.92 -25.63 L 153.65 -25.63 L 153.65 -21.16 L 146.77 -21.16 L 146.77 0 L 141.76 0 L 141.76 -21.16 Z M 167.15 0 L 162.14 0 L 162.14 -25.63 L 167.15 -25.63 L 167.15 0 Z M 177.71 -6.77 L 177.71 -6.77 L 177.71 -25.63 L 194.59 -25.63 L 194.59 -21.16 L 182.72 -21.16 L 182.72 -15.15 L 191.04 -15.15 L 190.67 -10.69 L 182.72 -10.69 L 182.72 -7.14 Q 182.72 -5.61 183.41 -5.04 Q 184.1 -4.46 185.89 -4.46 L 185.89 -4.46 L 194.59 -4.46 L 194.59 0 L 185.52 0 Q 181.2 0 179.46 -1.49 Q 177.71 -2.97 177.71 -6.77 Z M 208.74 0 L 203.75 0 L 203.75 -25.63 L 208.57 -25.63 L 219.08 -8.86 L 219.08 -25.63 L 224.09 -25.63 L 224.09 -2.58 Q 224.09 -1.41 223.37 -0.56 Q 222.65 0.28 221.66 0.28 L 221.66 0.28 Q 221.17 0.28 220.75 0.18 Q 220.33 0.09 219.77 -0.18 Q 219.22 -0.44 218.67 -1.05 Q 218.11 -1.67 217.6 -2.58 L 217.6 -2.58 L 208.74 -16.45 L 208.74 0 Z M 245.24 -11.34 L 245.24 -11.34 L 245.24 -13.5 Q 245.24 -15.7 245.51 -17.46 Q 245.79 -19.23 246.47 -20.83 Q 247.16 -22.43 248.25 -23.5 Q 249.34 -24.57 251.07 -25.21 Q 252.8 -25.84 255.07 -25.84 L 255.07 -25.84 Q 257.74 -25.84 259.79 -24.91 Q 261.83 -23.98 263.07 -21.97 Q 264.31 -19.97 264.31 -17.1 L 264.31 -17.1 L 259.64 -17.1 Q 259.25 -19.25 258.24 -20.32 Q 257.23 -21.39 255.07 -21.39 L 255.07 -21.39 Q 254.31 -21.39 253.68 -21.24 Q 253.04 -21.09 252.58 -20.87 Q 252.11 -20.64 251.74 -20.23 Q 251.37 -19.83 251.13 -19.44 Q 250.88 -19.05 250.72 -18.46 Q 250.55 -17.86 250.46 -17.38 Q 250.37 -16.91 250.32 -16.18 Q 250.27 -15.45 250.26 -14.94 Q 250.25 -14.43 250.25 -13.64 L 250.25 -13.64 L 250.25 -11.41 Q 250.25 -10.53 250.28 -9.91 Q 250.3 -9.28 250.41 -8.48 Q 250.51 -7.68 250.72 -7.13 Q 250.92 -6.57 251.27 -5.99 Q 251.62 -5.41 252.12 -5.06 Q 252.62 -4.71 253.37 -4.48 Q 254.12 -4.25 255.07 -4.25 L 255.07 -4.25 Q 256.38 -4.25 257.28 -4.64 Q 258.18 -5.03 258.68 -5.84 Q 259.18 -6.64 259.42 -7.58 Q 259.65 -8.51 259.78 -9.93 L 259.78 -9.93 L 264.42 -9.93 Q 264.42 -5.03 261.97 -2.41 Q 259.53 0.21 255.07 0.21 L 255.07 0.21 Q 245.24 0.21 245.24 -11.34 Z M 276.06 0 L 270.84 0 L 279.05 -23.47 Q 279.59 -24.7 280.24 -25.16 Q 280.89 -25.63 281.88 -25.63 L 281.88 -25.63 Q 282.84 -25.63 283.45 -25.19 Q 284.06 -24.75 284.51 -23.47 L 284.51 -23.47 L 292.72 0 L 287.5 0 L 286.06 -4.43 L 277.46 -4.43 L 276.06 0 Z M 281.88 -18.79 L 278.71 -8.65 L 284.9 -8.65 L 281.88 -18.79 Z M 305.85 0 L 300.84 0 L 300.84 -25.63 L 305.85 -25.63 L 305.85 0 Z M 316.42 -7.14 L 316.42 -7.14 L 316.42 -25.63 L 321.43 -25.63 L 321.43 -7.14 Q 321.43 -5.61 322.12 -5.04 Q 322.8 -4.46 324.6 -4.46 L 324.6 -4.46 L 332.22 -4.46 L 332.22 0 L 324.6 0 Q 320.29 0 318.36 -1.67 Q 316.42 -3.34 316.42 -7.14 Z M 340.82 -7.14 L 340.82 -7.14 L 340.82 -25.63 L 345.83 -25.63 L 345.83 -7.14 Q 345.83 -5.61 346.52 -5.04 Q 347.2 -4.46 349 -4.46 L 349 -4.46 L 356.63 -4.46 L 356.63 0 L 349 0 Q 344.69 0 342.76 -1.67 Q 340.82 -3.34 340.82 -7.14 Z M 368 0 L 362.78 0 L 370.99 -23.47 Q 371.53 -24.7 372.18 -25.16 Q 372.83 -25.63 373.82 -25.63 L 373.82 -25.63 Q 374.79 -25.63 375.39 -25.19 Q 376 -24.75 376.46 -23.47 L 376.46 -23.47 L 384.66 0 L 379.44 0 L 378 -4.43 L 369.41 -4.43 L 368 0 Z M 373.82 -18.79 L 370.66 -8.65 L 376.84 -8.65 L 373.82 -18.79 Z M 397.57 -21.16 L 390.73 -21.16 L 390.73 -25.63 L 409.45 -25.63 L 409.45 -21.16 L 402.58 -21.16 L 402.58 0 L 397.57 0 L 397.57 -21.16 Z" stroke-linecap="round" />
</g>
</g>
</g>
<g transform="matrix(1.9211538461538462 0 0 1.9211538461538462 641.0118462410542 727.6654032618007)" id="tagline-37e803bc-b26f-43dc-a8de-a314035f244a-logo"  >
<g style=""  paint-order="stroke"   >
		<g transform="matrix(1 0 0 1 0 0)" id="tagline-37e803bc-b26f-43dc-a8de-a314035f244a-logo-path-0"  >
<linearGradient id="SVGID_801508" gradientUnits="userSpaceOnUse" gradientTransform="matrix(1 0 0 1 1.75 -20.2)"  x1="0" y1="0" x2="0" y2="24">
<stop offset="0%" style="stop-color:rgb(113,23,234);stop-opacity: 1"/>
<stop offset="100%" style="stop-color:rgb(234,96,96);stop-opacity: 1"/>
</linearGradient>
<path style="stroke: none; stroke-width: 0; stroke-dasharray: none; stroke-linecap: butt; stroke-dashoffset: 0; stroke-linejoin: miter; stroke-miterlimit: 4; fill: url(#SVGID_801508); fill-rule: nonzero; opacity: 1;"  paint-order="stroke"  transform=" translate(-128.215, 10.04)" d="M 1.75 -3.94 L 1.75 -3.94 L 1.75 -15 L 7.58 -15 Q 10.11 -15 11.54 -13.57 L 11.54 -13.57 Q 11.85 -13.26 12.09 -12.91 Q 12.32 -12.56 12.48 -12.25 Q 12.64 -11.93 12.75 -11.52 Q 12.86 -11.1 12.92 -10.79 Q 12.97 -10.47 13 -9.99 Q 13.03 -9.52 13.04 -9.22 Q 13.04 -8.92 13.06 -8.38 Q 13.07 -7.85 13.07 -7.56 L 13.07 -7.56 L 13.09 -5.95 Q 13.04 -5.21 12.98 -4.7 Q 12.92 -4.19 12.77 -3.57 Q 12.61 -2.95 12.31 -2.42 Q 12.01 -1.89 11.54 -1.43 L 11.54 -1.43 Q 10.83 -0.72 9.72 -0.36 Q 8.61 0 7.38 0 L 7.38 0 Q 5.72 0 4.66 -0.2 Q 3.6 -0.39 2.94 -0.87 Q 2.27 -1.35 2.01 -2.07 Q 1.75 -2.8 1.75 -3.94 Z M 4.68 -12.39 L 4.68 -4.08 Q 4.68 -3.24 5.25 -2.93 Q 5.81 -2.61 7.31 -2.61 L 7.31 -2.61 Q 8.73 -2.61 9.51 -3.54 L 9.51 -3.54 Q 9.9 -4.02 10.02 -4.88 Q 10.13 -5.74 10.13 -7.56 L 10.13 -7.56 Q 10.13 -9.36 10.02 -10.17 Q 9.9 -10.98 9.51 -11.46 L 9.51 -11.46 Q 8.73 -12.39 7.31 -12.39 L 7.31 -12.39 L 4.68 -12.39 Z M 20.05 -4.18 L 20.05 -4.18 L 20.05 -15 L 29.93 -15 L 29.93 -12.39 L 22.98 -12.39 L 22.98 -8.87 L 27.85 -8.87 L 27.43 -6.25 L 22.98 -6.25 L 22.98 -4.18 Q 22.98 -3.28 23.38 -2.95 Q 23.79 -2.61 24.84 -2.61 L 24.84 -2.61 L 29.93 -2.61 L 29.93 0 L 24.84 0 Q 22.31 0 21.18 -0.98 Q 20.05 -1.95 20.05 -4.18 Z M 24.22 -17.51 L 24.22 -17.51 Q 24.22 -17.69 24.31 -17.97 L 24.31 -17.97 L 25.11 -20.2 L 27.99 -20.2 L 26.44 -17.97 Q 25.74 -16.96 24.81 -16.96 L 24.81 -16.96 Q 24.22 -16.96 24.22 -17.51 Z M 40.2 -0.84 L 35.54 -15 L 38.57 -15 L 41.58 -5.23 L 44.6 -15 L 47.65 -15 L 42.93 -0.84 Q 42.67 -0.23 42.12 0 L 42.12 0 Q 41.84 0.11 41.57 0.12 L 41.57 0.12 L 41.01 0 Q 40.45 -0.24 40.2 -0.84 L 40.2 -0.84 Z M 53.88 -3.96 L 53.88 -3.96 L 53.88 -15 L 63.76 -15 L 63.76 -12.39 L 56.81 -12.39 L 56.81 -8.87 L 61.68 -8.87 L 61.46 -6.25 L 56.81 -6.25 L 56.81 -4.18 Q 56.81 -3.28 57.21 -2.95 Q 57.61 -2.61 58.66 -2.61 L 58.66 -2.61 L 63.76 -2.61 L 63.76 0 L 58.45 0 Q 55.92 0 54.9 -0.87 Q 53.88 -1.74 53.88 -3.96 Z M 71.05 -4.18 L 71.05 -4.18 L 71.05 -15 L 73.98 -15 L 73.98 -4.18 Q 73.98 -3.28 74.38 -2.95 Q 74.78 -2.61 75.83 -2.61 L 75.83 -2.61 L 80.3 -2.61 L 80.3 0 L 75.83 0 Q 73.31 0 72.18 -0.98 Q 71.05 -1.95 71.05 -4.18 Z M 86.13 -7.12 L 86.13 -7.12 L 86.13 -8.22 Q 86.13 -11.71 87.56 -13.42 Q 88.98 -15.12 92.09 -15.12 L 92.09 -15.12 Q 95.15 -15.12 96.61 -13.4 Q 98.06 -11.68 98.06 -8.2 L 98.06 -8.2 L 98.06 -7.06 Q 98.06 -3.27 96.63 -1.57 Q 95.21 0.12 92.09 0.12 L 92.09 0.12 Q 88.93 0.12 87.53 -1.57 Q 86.13 -3.27 86.13 -7.12 Z M 89.06 -7.9 L 89.06 -7.12 Q 89.07 -6.53 89.09 -6.13 Q 89.11 -5.73 89.18 -5.21 Q 89.25 -4.68 89.37 -4.33 Q 89.49 -3.97 89.71 -3.6 Q 89.94 -3.22 90.25 -3 Q 90.57 -2.78 91.03 -2.63 Q 91.49 -2.49 92.09 -2.49 L 92.09 -2.49 Q 92.67 -2.49 93.12 -2.63 Q 93.58 -2.77 93.89 -2.99 Q 94.21 -3.22 94.44 -3.58 Q 94.67 -3.94 94.8 -4.31 Q 94.93 -4.68 95.01 -5.18 Q 95.08 -5.69 95.1 -6.12 Q 95.12 -6.55 95.12 -7.12 L 95.12 -7.12 L 95.12 -7.9 Q 95.12 -8.6 95.08 -9.13 Q 95.04 -9.65 94.93 -10.21 Q 94.83 -10.77 94.61 -11.16 Q 94.4 -11.55 94.07 -11.88 Q 93.75 -12.2 93.25 -12.36 Q 92.75 -12.52 92.09 -12.52 L 92.09 -12.52 Q 91.51 -12.52 91.06 -12.39 Q 90.61 -12.26 90.29 -12.05 Q 89.98 -11.83 89.75 -11.49 Q 89.53 -11.14 89.39 -10.78 Q 89.26 -10.41 89.19 -9.91 Q 89.12 -9.4 89.09 -8.95 Q 89.06 -8.5 89.06 -7.9 L 89.06 -7.9 Z M 107.97 0 L 105.04 0 L 105.04 -15 L 110.85 -15 Q 113.22 -15 114.52 -13.71 Q 115.81 -12.42 115.81 -9.91 Q 115.81 -7.4 114.51 -6.1 Q 113.21 -4.8 110.85 -4.8 L 110.85 -4.8 L 107.97 -4.8 L 107.97 0 Z M 107.97 -12.39 L 107.97 -7.44 L 110.71 -7.44 Q 111.77 -7.44 112.33 -8.01 Q 112.88 -8.58 112.88 -9.91 Q 112.88 -11.23 112.32 -11.81 Q 111.76 -12.39 110.71 -12.39 L 110.71 -12.39 L 107.97 -12.39 Z M 125.63 0 L 122.7 0 L 122.7 -15 L 128.51 -15 Q 130.88 -15 132.17 -13.71 Q 133.47 -12.42 133.47 -9.91 Q 133.47 -7.4 132.17 -6.1 Q 130.86 -4.8 128.51 -4.8 L 128.51 -4.8 L 125.63 -4.8 L 125.63 0 Z M 125.63 -12.39 L 125.63 -7.44 L 128.36 -7.44 Q 129.42 -7.44 129.98 -8.01 Q 130.54 -8.58 130.54 -9.91 Q 130.54 -11.23 129.97 -11.81 Q 129.41 -12.39 128.36 -12.39 L 128.36 -12.39 L 125.63 -12.39 Z M 140.35 -3.96 L 140.35 -3.96 L 140.35 -15 L 150.23 -15 L 150.23 -12.39 L 143.28 -12.39 L 143.28 -8.87 L 148.15 -8.87 L 147.93 -6.25 L 143.28 -6.25 L 143.28 -4.18 Q 143.28 -3.28 143.68 -2.95 Q 144.09 -2.61 145.13 -2.61 L 145.13 -2.61 L 150.23 -2.61 L 150.23 0 L 144.92 0 Q 142.39 0 141.37 -0.87 Q 140.35 -1.74 140.35 -3.96 Z M 157.08 -5.14 L 157.08 -5.14 L 157.08 -15 L 160.01 -15 L 160.01 -5.25 Q 160.01 -3.86 160.78 -3.17 Q 161.54 -2.49 162.81 -2.49 Q 164.07 -2.49 164.85 -3.17 Q 165.63 -3.86 165.63 -5.25 L 165.63 -5.25 L 165.63 -15 L 168.54 -15 L 168.54 -5.14 Q 168.54 -3.51 167.74 -2.29 Q 166.95 -1.07 165.66 -0.47 Q 164.37 0.12 162.81 0.12 Q 161.25 0.12 159.96 -0.47 Q 158.67 -1.07 157.88 -2.29 Q 157.08 -3.51 157.08 -5.14 Z M 178.95 0 L 176.02 0 L 176.02 -11.78 Q 176.02 -13.46 176.8 -14.23 Q 177.57 -15 179.41 -15 L 179.41 -15 L 181.89 -15 Q 184.14 -15 185.45 -13.64 Q 186.76 -12.28 186.76 -10.2 L 186.76 -10.2 Q 186.76 -8.68 185.97 -7.58 Q 185.19 -6.47 184.02 -6.05 L 184.02 -6.05 L 187.38 0 L 183.98 0 L 181.05 -5.57 L 178.95 -5.57 L 178.95 0 Z M 178.95 -11.06 L 178.95 -8 L 181.71 -8 Q 182.65 -8 183.24 -8.65 Q 183.84 -9.29 183.84 -10.2 L 183.84 -10.2 Q 183.84 -11.21 183.26 -11.8 Q 182.69 -12.39 181.71 -12.39 L 181.71 -12.39 L 180.26 -12.39 Q 179.6 -12.39 179.28 -12.03 Q 178.95 -11.67 178.95 -11.06 L 178.95 -11.06 Z M 205.91 0 L 201.91 -15 L 204.96 -15 L 207.29 -5.55 L 209.58 -13.35 Q 209.75 -14.17 210.13 -14.63 Q 210.5 -15.1 211.17 -15.1 L 211.17 -15.1 Q 211.49 -15.1 211.74 -14.97 Q 211.99 -14.83 212.16 -14.57 Q 212.33 -14.31 212.44 -14.04 Q 212.55 -13.76 212.68 -13.35 L 212.68 -13.35 L 214.95 -5.55 L 217.29 -15 L 220.34 -15 L 216.32 0 L 213.88 0 L 211.11 -9.1 L 208.36 0 L 205.91 0 Z M 226.64 -3.96 L 226.64 -3.96 L 226.64 -15 L 236.51 -15 L 236.51 -12.39 L 229.57 -12.39 L 229.57 -8.87 L 234.44 -8.87 L 234.22 -6.25 L 229.57 -6.25 L 229.57 -4.18 Q 229.57 -3.28 229.97 -2.95 Q 230.37 -2.61 231.42 -2.61 L 231.42 -2.61 L 236.51 -2.61 L 236.51 0 L 231.21 0 Q 228.67 0 227.66 -0.87 Q 226.64 -1.74 226.64 -3.96 Z M 243.81 -3.86 L 243.81 -3.86 L 243.81 -15 L 250.15 -15 Q 252.31 -15 253.39 -13.93 Q 254.47 -12.86 254.47 -10.89 L 254.47 -10.89 Q 254.47 -9.76 253.89 -8.96 Q 253.31 -8.15 252.61 -7.82 L 252.61 -7.82 Q 253 -7.64 253.32 -7.38 Q 253.65 -7.12 253.98 -6.71 Q 254.3 -6.31 254.49 -5.69 Q 254.68 -5.07 254.68 -4.32 L 254.68 -4.32 Q 254.68 -2.24 253.56 -1.12 Q 252.43 0 250.4 0 L 250.4 0 L 248.38 0 Q 245.89 0 244.85 -0.86 Q 243.81 -1.73 243.81 -3.86 Z M 246.74 -6.51 L 246.74 -4.15 Q 246.74 -3.28 247.18 -2.95 Q 247.61 -2.61 248.59 -2.61 L 248.59 -2.61 L 250.1 -2.61 Q 251.03 -2.61 251.39 -3.11 Q 251.75 -3.61 251.75 -4.46 L 251.75 -4.46 Q 251.75 -5.47 251.4 -5.99 Q 251.04 -6.51 250.1 -6.51 L 250.1 -6.51 L 246.74 -6.51 Z M 246.74 -12.39 L 246.74 -9.15 L 249.92 -9.15 Q 251.54 -9.15 251.54 -10.79 L 251.54 -10.79 Q 251.54 -12.39 249.92 -12.39 L 249.92 -12.39 L 246.74 -12.39 Z" stroke-linecap="round" />
</g>
</g>
</g>
</svg>